<svg version="1.1" preserveAspectRatio="none" xmlns="http://www.w3.org/2000/svg" width="500" height="500" viewBox="0 0 500 500"><rect width="100%" height="100%" fill="#192537" fill-opacity="1"/><svg viewBox="117.6673 249.7004 390.5245 134.8664" width="333" height="115.00049599961078" x="83.5px" y="192.4998px" xmlns="http://www.w3.org/2000/svg" xmlns:xlink="http://www.w3.org/1999/xlink" preserveAspectRatio="none"><defs></defs><style>.companyName {fill:#E9E9E9;fill-opacity:1;}.icon1 {fill:#B09E80;fill-opacity:0.98;}.icon2 {fill:#E9E9E9;fill-opacity:1;}.icon3 {fill:#716551;fill-opacity:1;}.icon3-str {stroke:#716551;stroke-opacity:1;}.shapeStroke-str {stroke:#E9E9E9;stroke-opacity:1;}.text {fill:#B09E80;fill-opacity:1;}</style><defs></defs><g opacity="1" transform="rotate(0 140.3311 369.5668)">
<svg width="345.1969" height="15" x="140.3311" y="369.5668" version="1.1" preserveAspectRatio="none" viewBox="2.04 -30.36 706.0400000000001 30.68">
  <g transform="matrix(1 0 0 1 0 0)" class="text"><path id="id-6izo4zJp21" d="M8.72-3.76L26.32-3.76L26.32 0L2.04 0L8.84-10.12Q17-22.36 19-25.20L19-25.20L6.96-25.20Q5.68-25.20 4.68-25.86Q3.68-26.52 3.68-27.64L3.68-27.64L3.68-30.36L7.28-30.36L7.28-29.84Q7.28-29.20 7.52-29.06Q7.76-28.92 8.56-28.92L8.56-28.92L25.88-28.92L8.72-3.76Z M58.84 0L55.84-7.60L44.72-7.60L41.64 0L37.80 0L50.44-30.12L50.68-30.12L63.32 0L58.84 0ZM46.12-10.96L54.52-10.96L50.40-21.52L46.12-10.96Z M80.68-17.28L80.56-15.84L81.04-16.60L92.88-28.92L97.88-28.92L85.92-16.52L98.56 0L93.64 0L83.08-14.04L80.64-11.68L80.68 0L76.72 0L76.72-28.92L80.68-28.92L80.68-17.28Z M115.80-3.76L130.52-3.76L130.52 0L111.92 0L111.92-11.48L109.16-10.56L108.40-13.64L111.92-14.80L111.92-28.92L115.80-28.92L115.80-16.08L123.28-18.52L124.04-15.44L115.80-12.72L115.80-3.76Z M162.68 0L159.68-7.60L148.56-7.60L145.48 0L141.64 0L154.28-30.12L154.52-30.12L167.16 0L162.68 0ZM149.96-10.96L158.36-10.96L154.24-21.52L149.96-10.96Z M180.56 0L180.56-28.92L188.48-28.92Q193.88-28.92 197.42-26.78Q200.96-24.64 202.58-21.26Q204.20-17.88 204.20-14.12L204.20-14.12Q204.20-9.92 202.24-6.70Q200.28-3.48 197-1.74Q193.72 0 189.88 0L189.88 0L180.56 0ZM184.44-3.76L189.12-3.76Q192.32-3.76 194.84-5.02Q197.36-6.28 198.78-8.68Q200.20-11.08 200.20-14.40L200.20-14.40Q200.20-17.80 198.72-20.24Q197.24-22.68 194.78-23.94Q192.32-25.20 189.48-25.20L189.48-25.20L184.44-25.20L184.44-3.76Z M235.04-28.92L239.80-28.92L228.96-9.64L228.96 0L225.08 0L225.08-9.64L214.36-28.92L219.16-28.92L227.12-14.04L235.04-28.92Z M286.60-15Q289.08-14.04 290.52-12.26Q291.96-10.48 291.96-8.12L291.96-8.12Q291.96-5.36 290.62-3.54Q289.28-1.72 287.10-0.86Q284.92 0 282.32 0L282.32 0L273.72 0L273.72-28.92L281.20-28.92Q285.64-28.92 288.08-27.10Q290.52-25.28 290.52-21.64L290.52-21.64Q290.52-19.36 289.50-17.66Q288.48-15.96 286.60-15L286.60-15ZM277.60-25.20L277.60-16.28L282-16.28Q284.24-16.28 285.38-17.56Q286.52-18.84 286.52-20.84L286.52-20.84Q286.52-23.04 285.16-24.12Q283.80-25.20 281.36-25.20L281.36-25.20L277.60-25.20ZM282.16-3.60Q284.68-3.60 286.32-4.74Q287.96-5.88 287.96-8.08L287.96-8.08Q287.96-10.36 286.18-11.44Q284.40-12.52 281.88-12.52L281.88-12.52L277.60-12.52L277.60-3.60L282.16-3.60Z M310-10.24Q310-8.32 310.92-6.78Q311.84-5.24 313.42-4.34Q315-3.44 316.92-3.44L316.92-3.44Q318.92-3.44 320.54-4.32Q322.16-5.20 323.08-6.76Q324-8.32 324-10.24L324-10.24L324-28.92L327.80-28.92L327.80-10.12Q327.80-7.04 326.36-4.66Q324.92-2.28 322.44-0.98Q319.96 0.32 316.92 0.32L316.92 0.32Q313.92 0.32 311.44-0.98Q308.96-2.28 307.54-4.66Q306.12-7.04 306.12-10.12L306.12-10.12L306.12-28.92L310-28.92L310-10.24Z M347.72-17.28L347.60-15.84L348.08-16.60L359.92-28.92L364.92-28.92L352.96-16.52L365.60 0L360.68 0L350.12-14.04L347.68-11.68L347.72 0L343.76 0L343.76-28.92L347.72-28.92L347.72-17.28Z M407.68-29.84L407.72-29.84L407.72 0L403.88 0L403.88-18.72L393.24-3.64L393.16-3.64L382.72-18.20L382.72 0L378.96 0L378.96-29.84L379-29.84L393.24-9.68L407.68-29.84Z M442.20 0L439.20-7.60L428.08-7.60L425 0L421.16 0L433.80-30.12L434.04-30.12L446.68 0L442.20 0ZM429.48-10.96L437.88-10.96L433.76-21.52L429.48-10.96Z M479.76-2.16Q478.36-1.24 476.22-0.46Q474.08 0.32 471.56 0.32L471.56 0.32Q467.12 0.32 463.74-1.64Q460.36-3.60 458.54-6.92Q456.72-10.24 456.72-14.24L456.72-14.24Q456.72-18.52 458.56-21.94Q460.40-25.36 463.66-27.30Q466.92-29.24 471.04-29.24L471.04-29.24Q473.48-29.24 475.60-28.60Q477.72-27.96 479.40-26.92L479.40-26.92L477.84-23.28Q474.52-25.52 471.16-25.52L471.16-25.52Q468.36-25.52 465.98-24.04Q463.60-22.56 462.18-20.02Q460.76-17.48 460.76-14.44L460.76-14.44Q460.76-11.32 462.06-8.80Q463.36-6.28 465.78-4.86Q468.20-3.44 471.36-3.44L471.36-3.44Q475.24-3.44 478.12-5.64L478.12-5.64L479.76-2.16Z M517.20-28.92L517.20 0L513.32 0L513.32-12.68L498.16-12.68L498.16 0L494.28 0L494.28-28.92L498.16-28.92L498.16-16.40L513.32-16.40L513.32-28.92L517.20-28.92Z M533.52-28.92L552.32-28.92L552.32-25.20L537.40-25.20L537.40-16.40L550.72-16.40L550.72-12.68L537.40-12.68L537.40-3.76L552.88-3.76L552.88 0L533.52 0L533.52-28.92Z M588.08 0L583.56 0L576.76-10.68Q576.44-10.64 575.80-10.64L575.80-10.64L571.52-10.64L571.52 0L567.64 0L567.64-28.92L575.36-28.92Q578.32-28.92 580.64-27.88Q582.96-26.84 584.28-24.82Q585.60-22.80 585.60-19.96L585.60-19.96Q585.60-17.28 584.42-15.04Q583.24-12.80 580.80-11.64L580.80-11.64L588.08 0ZM575.72-14.40Q578.84-14.40 580.22-16.04Q581.60-17.68 581.60-19.80L581.60-19.80Q581.60-21.08 581.02-22.32Q580.44-23.56 579.18-24.38Q577.92-25.20 576-25.20L576-25.20L571.52-25.20L571.52-14.40L575.72-14.40Z M617-23.76Q615.44-24.60 613.68-25.12Q611.92-25.64 610.36-25.64L610.36-25.64Q608-25.64 606.62-24.58Q605.24-23.52 605.24-21.68L605.24-21.68Q605.24-19.88 606.86-18.74Q608.48-17.60 611.48-16.48L611.48-16.48Q613.72-15.68 615.26-14.74Q616.80-13.80 617.82-12.14Q618.84-10.48 618.84-7.92L618.84-7.92Q618.84-5.60 617.68-3.72Q616.52-1.84 614.38-0.76Q612.24 0.32 609.36 0.32L609.36 0.32Q606.68 0.32 604.20-0.54Q601.72-1.40 599.84-2.72L599.84-2.72L601.56-5.80Q603.04-4.68 605.12-3.90Q607.20-3.12 609-3.12L609-3.12Q611.32-3.12 613.06-4.32Q614.80-5.52 614.80-7.88L614.80-7.88Q614.80-9.88 613.34-11.06Q611.88-12.24 609.24-13.28L609.24-13.28Q606.80-14.20 605.18-15.08Q603.56-15.96 602.40-17.50Q601.24-19.04 601.24-21.36L601.24-21.36Q601.24-24.76 603.62-26.86Q606-28.96 609.80-29.08L609.80-29.08Q614.48-29.08 618.48-26.76L618.48-26.76L617-23.76Z M637.28-17.28L637.16-15.84L637.64-16.60L649.48-28.92L654.48-28.92L642.52-16.52L655.16 0L650.24 0L639.68-14.04L637.24-11.68L637.28 0L633.32 0L633.32-28.92L637.28-28.92L637.28-17.28Z M668.52-28.92L672.40-28.92L672.40 0L668.52 0L668.52-28.92Z M688.72-28.92L707.52-28.92L707.52-25.20L692.60-25.20L692.60-16.40L705.92-16.40L705.92-12.68L692.60-12.68L692.60-3.76L708.08-3.76L708.08 0L688.72 0L688.72-28.92Z"/></g>
</svg>
</g><g opacity="1" transform="rotate(0 297.9296 249.7004)">
<svg width="30" height="23.7328" x="297.9296" y="249.7004" version="1.1" preserveAspectRatio="none" viewBox="25.9679012298584 30.976905822753903 48.06419372558594 38.023284912109375">
  <g transform="matrix(1 0 0 1 0 0)"><defs><g id="id-LgOaV3zR0"><title>Artboard 265</title><path d="M32,69H68a2,2,0,0,0,2-1.67l4-24a2,2,0,0,0-3-2.07L58.93,48.17l-7.1-16a2,2,0,0,0-3.66,0l-7.1,16L29,41.26a2,2,0,0,0-3,2.07l4,24A2,2,0,0,0,32,69Zm9-16.26a2,2,0,0,0,1.61.16,2,2,0,0,0,1.21-1.09L50,37.92l6.17,13.89a2,2,0,0,0,1.21,1.09A2,2,0,0,0,59,52.74l10.34-5.91L66.31,65H33.69l-3-18.17Z"></path></g></defs><use class="icon1" xlink:href="#id-LgOaV3zR0"></use></g>
</svg>
</g><g opacity="1" transform="rotate(0 117.6673 265.5668)">
<svg width="165.2623" height="2" x="117.6673" y="265.5668" version="1.1" preserveAspectRatio="none" viewBox="0 0 165.2623 2">
  <defs><rect x="0" y="0" width="165.2623" height="2" rx="0px" ry="0px" id="id-sr1BtIxl1673465164834"></rect></defs><use class="icon1 shapeStroke-str" style="stroke-width:0;" xlink:href="#id-sr1BtIxl1673465164834"></use>
</svg>
</g><g opacity="1" transform="rotate(0 342.9295 265.5668)">
<svg width="165.2623" height="2" x="342.9295" y="265.5668" version="1.1" preserveAspectRatio="none" viewBox="0 0 165.2623 2">
  <defs><rect x="0" y="0" width="165.2623" height="2" rx="0px" ry="0px" id="id-R9TavoXY1673465164834"></rect></defs><use class="icon1 shapeStroke-str" style="stroke-width:0;" xlink:href="#id-R9TavoXY1673465164834"></use>
</svg>
</g><g opacity="1" transform="rotate(0 117.6673 291.5668)">
<svg width="390.5245" height="50" x="117.6673" y="291.5668" version="1.1" preserveAspectRatio="none" viewBox="2.4 -28.56 227.44 29.12">
  <g transform="matrix(1 0 0 1 0 0)" class="companyName"><path id="id-D6z1nYkh9" d="M10.64-0.40L10.64-0.40L11.16-0.40L11.16 0L2.40 0L2.40-0.40L2.92-0.40Q3.96-0.40 4.70-1.14Q5.44-1.88 5.48-2.92L5.48-2.92L5.48-25.12Q5.44-26.16 4.70-26.88Q3.96-27.60 2.92-27.60L2.92-27.60L2.40-27.60L2.40-28L11.16-28L11.16-27.60L10.64-27.60Q9.60-27.60 8.86-26.88Q8.12-26.16 8.08-25.12L8.08-25.12L8.08-2.92Q8.08-1.88 8.84-1.14Q9.60-0.40 10.64-0.40ZM26.72-0.40L26.72 0L25 0Q20.92 0 19-2.28L19-2.28L9.36-13.92L18.80-25.76Q19.12-26.16 19.12-26.48Q19.12-26.80 19-27.04L19-27.04Q18.68-27.64 17.84-27.64L17.84-27.64L17.44-27.64L17.44-28L25.88-28L25.88-27.64L25.72-27.64Q23.08-27.64 21.40-25.76L21.40-25.76L12-14.88L22.92-2.04Q24.52-0.44 26.72-0.40L26.72-0.40Z M43.84 0.56Q37.44 0.52 33.46-3.48Q29.48-7.48 29.48-14Q29.48-20.52 33.46-24.54Q37.44-28.56 43.84-28.56L43.84-28.56Q49.36-28.56 53.56-25.84L53.56-25.84L54.36-20.20L54-20.20Q53.12-23.64 50.46-25.50Q47.80-27.36 43.84-27.36L43.84-27.36Q38.76-27.36 35.62-23.68Q32.48-20 32.48-14Q32.48-8 35.62-4.34Q38.76-0.68 43.84-0.64L43.84-0.64Q46.44-0.64 48.78-1.56Q51.12-2.48 52.88-4.12L52.88-4.12L52.88-11.20Q52.88-12.08 52.34-12.54Q51.80-13 50.84-13L50.84-13L50.20-13L50.20-13.40L58.04-13.40L58.04-13L57.44-13Q56.44-13 55.92-12.54Q55.40-12.08 55.44-11.20L55.44-11.20L55.44-4.60Q54.40-3.24 52.96-2.16Q51.52-1.08 49.10-0.26Q46.68 0.56 43.84 0.56L43.84 0.56Z M70.64-0.40L70.64-0.40L71.16-0.40L71.16 0L62.40 0L62.40-0.40L62.92-0.40Q63.96-0.40 64.70-1.14Q65.44-1.88 65.48-2.92L65.48-2.92L65.48-25.12Q65.44-26.16 64.70-26.88Q63.96-27.60 62.92-27.60L62.92-27.60L62.40-27.60L62.40-28L71.16-28L71.16-27.60L70.64-27.60Q69.60-27.60 68.86-26.88Q68.12-26.16 68.08-25.12L68.08-25.12L68.08-2.92Q68.08-1.88 68.84-1.14Q69.60-0.40 70.64-0.40ZM86.72-0.40L86.72 0L85 0Q80.92 0 79-2.28L79-2.28L69.36-13.92L78.80-25.76Q79.12-26.16 79.12-26.48Q79.12-26.80 79-27.04L79-27.04Q78.68-27.64 77.84-27.64L77.84-27.64L77.44-27.64L77.44-28L85.88-28L85.88-27.64L85.72-27.64Q83.08-27.64 81.40-25.76L81.40-25.76L72-14.88L82.92-2.04Q84.52-0.44 86.72-0.40L86.72-0.40Z M124.28-0.40L124.28-0.40L124.92-0.40L124.92 0L116.24 0L116.24-0.36L116.84-0.36Q117.52-0.36 118-0.90Q118.48-1.44 118.40-2.08L118.40-2.08L116.60-22.20L108.20-3.52Q107.08-1.08 106.84 0.56L106.84 0.56L106.44 0.56L96.20-21.64L94.48-2.08Q94.40-1.44 94.88-0.90Q95.36-0.36 96-0.36L96-0.36L96.64-0.36L96.64 0L88.88 0L88.88-0.40L89.52-0.40Q90.64-0.40 91.46-1.08Q92.28-1.76 92.44-2.92L92.44-2.92L95.44-28.56L95.84-28.56L107-4.44L117.92-28.56L118.28-28.56L121.36-2.92Q121.56-1.32 122.96-0.68L122.96-0.68Q123.56-0.40 124.28-0.40Z M151.68 0L151.68 0L141.92 0L141.96-0.40L142.44-0.40Q143.48-0.40 144.22-1.12Q144.96-1.84 145-2.88L145-2.88L145-25.12Q145-26.16 144.24-26.88Q143.48-27.60 142.44-27.60L142.44-27.60L141.96-27.60L141.92-28L149.88-28Q154-28 156.28-26.18Q158.56-24.36 158.56-21.32L158.56-21.32Q158.56-18.92 157.28-17.34Q156-15.76 154.16-15.24L154.16-15.24Q157.32-14.76 159.16-12.64Q161-10.52 161-7.30Q161-4.08 158.54-2.04Q156.08 0 151.68 0ZM147.60-26.72L147.60-1.44L151.52-1.44Q151.56-1.44 151.60-1.44L151.60-1.44Q154.64-1.44 156.32-3.10Q158-4.76 158-7.80L158-7.80Q158-9.52 157.42-10.82Q156.84-12.12 155.96-12.88L155.96-12.88Q153.64-14.80 149-14.80L149-14.80Q149-14.80 148.96-14.80L148.96-14.80L148.96-15.16Q149-15.16 149.34-15.16Q149.68-15.16 150.32-15.24Q150.96-15.32 151.76-15.52Q152.56-15.72 153.20-16.16Q153.84-16.60 154.40-17.20L154.40-17.20Q155.56-18.52 155.56-21.14Q155.56-23.76 154.06-25.24Q152.56-26.72 149.72-26.72L149.72-26.72L147.60-26.72Z M166.76-0.40L167.32-0.40Q168.28-0.40 168.94-1.02Q169.60-1.64 169.64-2.52L169.64-2.52L169.64-21.52Q169.64-22.40 168.96-23Q168.28-23.60 167.32-23.60L167.32-23.60L166.76-23.60L166.76-24L178.44-24Q180.08-24 181.32-24.24Q182.56-24.48 182.92-24.64L182.92-24.64L182.92-20.08L182.48-20.12L182.48-20.72Q182.48-21.56 181.92-22.16Q181.36-22.76 180.48-22.76L180.48-22.76L172.16-22.76L172.16-12.60L179-12.60Q179.80-12.60 180.22-13.08Q180.64-13.56 180.64-14.28L180.64-14.28L180.64-14.80L181.08-14.80L181.08-9.20L180.64-9.20L180.64-9.72Q180.64-10.84 179.80-11.24L179.80-11.24Q179.48-11.36 179.12-11.40L179.12-11.40L172.16-11.40L172.16-1.24L178.44-1.24Q180.28-1.24 181.54-1.88Q182.80-2.52 183.46-3.40Q184.12-4.28 184.80-5.72L184.80-5.72L185.20-5.72L183 0L166.76 0L166.76-0.40Z M208.52-22.84L201.28-22.84L201.28-2.52Q201.32-1.28 202.48-0.68L202.48-0.68Q203-0.40 203.64-0.40L203.64-0.40L204.08-0.40L204.08 0L195.84 0L195.84-0.40L196.32-0.40Q197.28-0.40 197.96-1.04Q198.64-1.68 198.68-2.56L198.68-2.56L198.68-22.84L191.44-22.84Q190.52-22.84 189.98-22.24Q189.44-21.64 189.44-20.80L189.44-20.80L189.44-20.16L189-20.16L189-24.68Q189.80-24.36 191.26-24.20Q192.72-24.04 193.44-24.04L193.44-24.04L206.48-24.04Q209.36-24.04 210.96-24.68L210.96-24.68L210.96-20.16L210.52-20.16L210.52-20.80Q210.52-21.64 209.96-22.24Q209.40-22.84 208.52-22.84L208.52-22.84Z M215.84-1.32L215.84-1.32Q215.72-1.80 215.72-3.28Q215.72-4.76 216.24-6.28L216.24-6.28L216.72-6.28Q216.68-5.92 216.68-5.56L216.68-5.56Q216.68-3.40 218.10-2.02Q219.52-0.64 222.04-0.64L222.04-0.64Q224.68-0.64 226.16-1.86Q227.64-3.08 227.64-5.02Q227.64-6.96 226.20-8.24L226.20-8.24L218.20-14.40Q216.28-16.04 216.28-18.80L216.28-18.80Q216.28-20.36 217.14-21.68Q218-23 219.54-23.78Q221.08-24.56 223.16-24.56Q225.24-24.56 226.84-24.20L226.84-24.20L228.16-24.20L228.24-19.84L227.80-19.84Q227.80-21.52 226.64-22.44Q225.48-23.36 223.32-23.36Q221.16-23.36 219.76-22.26Q218.36-21.16 218.36-19.42Q218.36-17.68 219.92-16.40L219.92-16.40L228-10.16Q229.84-8.64 229.84-5.92Q229.84-3.20 227.78-1.32Q225.72 0.56 222.76 0.56L222.76 0.56Q220.80 0.56 218.84 0.08Q216.88-0.40 215.84-1.32Z"/></g>
</svg>
</g></svg></svg>